<?xml version="1.0" encoding="UTF-8"?>
<svg id="Layer_1" data-name="Layer 1" xmlns="http://www.w3.org/2000/svg" xmlns:xlink="http://www.w3.org/1999/xlink" viewBox="0 0 185 185">
  <defs>
    <style>
      .cls-1 {
        fill: url(#linear-gradient);
      }
    </style>
    <linearGradient id="linear-gradient" x1="0" y1="93.39" x2="185" y2="93.39" gradientTransform="translate(0 185.89) scale(1 -1)" gradientUnits="userSpaceOnUse">
      <stop offset="0" stop-color="#ffdb6e"/>
      <stop offset="1" stop-color="#ffbc5e"/>
    </linearGradient>
  </defs>
  <path class="cls-1" d="M0,92.5C0,41.41,41.41,0,92.5,0h42.5c27.61,0,50,22.39,50,50v42.5c0,51.09-41.41,92.5-92.5,92.5h0C41.41,185,0,143.59,0,92.5h0Z"/>
  <path d="M166.89,55.41c-2.32.38-5.31.18-7.52.77-5.16,1.36-16.16,7.02-21.39,9.59-12.72,6.26-24.89,13.75-36.03,22.49-1.28-2.96-3.95-4.14-7.04-4.38,1.72-3.54,3.64-7,5.15-10.64,4.58-11,11.31-35.89.63-44.73-6.85-5.67-14.82-2.16-19.86,3.91-3.56,4.29-9.36,16.07-3.43,20.31,6.18,4.42,18.45-3.93,21.02-9.92.12-.28.58-1.21-.07-1.17-.09.96-.75,1.57-1.41,2.2-1.79,1.72-12.57,6.69-15.03,6.88-7.15.53-2.97-10.5-1.03-13.86,7.93-13.73,22.54-11.63,23.74,4.93,1.02,14.07-4.96,30.09-11.63,42.21-2.09,1.22-4.27,1.91-6.38,3.32-2.2,1.46-9.5,8.16-9.84,10.51-.06.4-.06.79.03,1.18.44,1.32,4.28.13,5.25-.3,5.38-2.41,8.6-8.3,11.82-12.9,2.84-.47,5.87.48,6.63,3.5-12.63,11.78-24.5,25.71-33.06,40.78-2.49,4.38-7.46,13.26-6.17,18.25.7,2.7,3.57,2.8,5.79,2.02,8.54-2.99,19.25-19.43,23.92-27.08,5.42-8.88,10.36-18.09,11.77-28.6,12.99-11.6,28.96-20.02,44.64-27.65,6.4-3.12,13.3-5.03,18.43-10.05.24-.24,1.42-1.28,1.09-1.57ZM87.39,92.17c-2.5,2.36-4.91,5.86-8.75,5.79,2.78-4.83,7.47-8.92,12.52-11.26l-3.76,5.47ZM92.77,116.32c-5.09,9.43-12.01,20.07-20.08,27.17-1.19,1.05-7.29,6.15-8.69,4.45-.3-.37-.33-1.3-.27-1.8.86-7.26,14.24-24.03,19.15-30.31,5.39-6.89,10.99-13.73,17.65-19.43-1.02,6.97-4.45,13.77-7.77,19.92Z"/>
</svg>